<?xml version="1.0" encoding="UTF-8"?>
<svg width="74px" height="74px" viewBox="0 0 74 74" version="1.1" xmlns="http://www.w3.org/2000/svg" xmlns:xlink="http://www.w3.org/1999/xlink">
    <!-- Generator: Sketch 55.1 (78136) - https://sketchapp.com -->
    <title>Icon / Banking</title>
    <desc>Created with Sketch.</desc>
    <defs>
        <polygon points="5.625e-05 0.0247797665 72 0.0247797665 72 54.770414 5.625e-05 54.770414"></polygon>
        <polygon points="0 0.139937743 2.8125 0.139937743 2.8125 5.32280311 0 5.32280311"></polygon>
    </defs>
    <g id="Icon-/-Banking" stroke="none" stroke-width="1" fill="none" fill-rule="evenodd">
        <rect fill="" x="0" y="0" width="74" height="74"></rect>
        <g transform="translate(1.000000, 1.000000)">
            <g transform="translate(0.000000, 17.089634)">
                <mask fill="white">
                    <use xlink:href="#path-1"></use>
                </mask>
                <g></g>
                <path d="M58.5911813,9.65358911 C57.5421188,8.79883424 56.418525,8.04157354 55.2367125,7.3913323 C56.0136656,5.16759689 57.9085875,3.51299767 60.1687125,2.99639066 L58.5911813,9.65358911 Z M68.4125719,18.8861183 L65.1458531,18.4786319 C64.1529,16.0583673 62.7259781,13.8196436 60.9528375,11.8826475 L63.3545719,1.74745681 C63.45315,1.33086537 63.3554156,0.892281712 63.08865,0.556655253 C62.8221656,0.221028794 62.4160406,0.0247797665 61.9865719,0.0247797665 L61.6793063,0.0247797665 L61.6743844,0.0247797665 C57.6873844,0.0247797665 54.094275,2.52348794 52.6811344,6.18848405 C51.6814313,5.7927642 50.654025,5.46680311 49.6059469,5.21984591 C48.8500875,5.041807 48.0926813,5.50756576 47.9138063,6.26062412 C47.7352125,7.01354241 48.2029312,7.76814163 48.9587906,7.94618054 C52.5384,8.78958911 55.7314312,10.5926708 58.2483375,13.0948809 C58.3404469,13.2290755 58.4549156,13.3478615 58.5896344,13.4439549 C60.4243688,15.3621805 61.874775,17.6636591 62.8154156,20.242772 C62.9955562,20.7371066 63.4388062,21.0891222 63.9623531,21.1543984 L68.0632594,21.6658226 C68.7045094,21.745807 69.1878375,22.2914101 69.1878375,22.9349276 L69.1878375,29.9972311 C69.1878375,30.6407486 68.7043688,31.1863518 68.0632594,31.2664763 L64.2632906,31.7402195 C63.7165406,31.8082973 63.2602125,32.1881883 63.0956812,32.7117992 C61.9684313,36.2998926 59.8262906,39.4727953 56.9008688,41.8871767 C56.5784156,42.1533245 56.3918063,42.5487642 56.3918063,42.9657759 L56.3918063,50.7084374 C56.3918063,51.4033634 55.8242438,51.9687175 55.1267438,51.9687175 L46.9695094,51.9687175 C46.2718688,51.9687175 45.7043063,51.4033634 45.7043063,50.7084374 L45.7043063,47.757558 C45.7043063,46.9840482 45.0747281,46.3567798 44.2980563,46.3567798 L32.4837281,46.3567798 C31.7071969,46.3567798 31.0774781,46.9840482 31.0774781,47.757558 L31.0774781,50.7084374 C31.0774781,51.4033634 30.5099156,51.9687175 29.812275,51.9687175 L21.6549,51.9687175 C20.9572594,51.9687175 20.3898375,51.4033634 20.3898375,50.7084374 L20.3898375,45.2413401 C20.3898375,44.7276747 20.1074625,44.2553323 19.6545094,44.0103362 C13.3428375,40.5969198 9.42193125,34.0369354 9.42193125,26.8904451 C9.42193125,16.1565619 18.1884938,7.42397043 28.9643063,7.42397043 L30.7266188,7.42397043 C31.50315,7.42397043 32.1328688,6.79684202 32.1328688,6.02319222 C32.1328688,5.24954241 31.50315,4.62241401 30.7266188,4.62241401 L28.9643063,4.62241401 C18.5254313,4.62241401 9.73566563,11.7869743 7.28822813,21.4387564 L6.25786875,21.4387564 C4.358025,21.4387564 2.81255625,19.8991611 2.81255625,18.0068498 C2.81255625,16.1145385 4.358025,14.5749432 6.25786875,14.5749432 C7.0344,14.5749432 7.66411875,13.9478148 7.66411875,13.174165 C7.66411875,12.4005152 7.0344,11.7733868 6.25786875,11.7733868 C2.8072125,11.7733868 5.625e-05,14.5696202 5.625e-05,18.0068498 C5.625e-05,21.4440794 2.8072125,24.2403128 6.25786875,24.2403128 L6.7683375,24.2403128 C6.66441563,25.1096358 6.60943125,25.9936669 6.60943125,26.8904451 C6.60943125,34.7836903 10.7906344,42.0513479 17.5771969,46.0568732 L17.5771969,50.7085774 C17.5771969,52.9482817 19.4064469,54.770414 21.6546188,54.770414 L29.8119938,54.770414 C32.0603063,54.770414 33.8896969,52.9482817 33.8896969,50.7085774 L33.8896969,49.1584763 L42.891525,49.1584763 L42.891525,50.7085774 C42.891525,52.9482817 44.720775,54.770414 46.9692281,54.770414 L55.1264625,54.770414 C57.3749156,54.770414 59.204025,52.9482817 59.204025,50.7085774 L59.204025,43.6116747 C62.059275,41.1103051 64.2139313,37.9551922 65.4892594,34.4108031 L68.4124313,34.0461805 C70.4576813,33.7912389 72.0000563,32.0504918 72.0000563,29.9972311 L72.0000563,22.9349276 C72.0000563,20.881807 70.4578219,19.1410599 68.4125719,18.8861183 L68.4125719,18.8861183 Z" fill="#FFFFFF" mask="url(#mask-2)"></path>
            </g>
            <path d="M55.9786359,35.7100529 C55.7172141,35.4495082 55.3544016,35.2996249 54.9845578,35.2996249 C54.6147141,35.2996249 54.2519016,35.4495082 53.9901984,35.7100529 C53.7287766,35.9705977 53.5783078,36.3319984 53.5783078,36.7004031 C53.5783078,37.0688078 53.7286359,37.4302086 53.9901984,37.6907533 C54.2520422,37.9512981 54.6147141,38.1011813 54.9845578,38.1011813 C55.3544016,38.1011813 55.7172141,37.9512981 55.9786359,37.6907533 C56.2400578,37.4302086 56.3908078,37.0688078 56.3908078,36.7004031 C56.3908078,36.3319984 56.2400578,35.9705977 55.9786359,35.7100529" fill="#FFFFFF"></path>
            <path d="M41.2371844,8.31122335 C40.4606531,8.31122335 39.8309344,8.93835175 39.8309344,9.71200156 L39.8309344,15.2681883 C39.8309344,16.0418381 40.4606531,16.6689665 41.2371844,16.6689665 C42.013575,16.6689665 42.6434344,16.0418381 42.6434344,15.2681883 L42.6434344,9.71200156 C42.6434344,8.93849183 42.0137156,8.31122335 41.2371844,8.31122335" fill="#FFFFFF"></path>
            <path d="M42.2310375,3.63920778 C41.9697562,3.37866304 41.6069437,3.22877977 41.2371,3.22877977 C40.8671156,3.22877977 40.5044438,3.37866304 40.2427406,3.63920778 C39.9811781,3.89975253 39.83085,4.26115331 39.83085,4.62955798 C39.83085,4.99936342 39.9810375,5.35936342 40.2427406,5.61990817 C40.5044438,5.88045292 40.8671156,6.03033619 41.2371,6.03033619 C41.6069437,6.03033619 41.9697562,5.88045292 42.2310375,5.61990817 C42.4926,5.35936342 42.64335,4.99796265 42.64335,4.62955798 C42.64335,4.26115331 42.4926,3.90115331 42.2310375,3.63920778" fill="#FFFFFF"></path>
            <g transform="translate(28.406250, 0.000140)">
                <mask fill="white">
                    <use xlink:href="#path-3"></use>
                </mask>
                <g></g>
                <path d="M1.40625,0.139923735 C0.62971875,0.139923735 0,0.76705214 0,1.54070195 L0,3.9220249 C0,4.69567471 0.62971875,5.32280311 1.40625,5.32280311 C2.18278125,5.32280311 2.8125,4.69567471 2.8125,3.9220249 L2.8125,1.54070195 C2.8125,0.76705214 2.18292187,0.139923735 1.40625,0.139923735" fill="#FFFFFF" mask="url(#mask-4)"></path>
            </g>
            <path d="M16.0225313,43.9801074 C16.0225313,43.2064576 15.3928125,42.5793292 14.6162813,42.5793292 C13.83975,42.5793292 13.2100313,43.2064576 13.2100313,43.9801074 L13.2101719,44.0544887 C13.2149531,44.8250568 13.8436875,45.4465821 14.6162813,45.4465821 L14.6251406,45.4465821 C15.4016719,45.4416794 16.0274531,44.8106288 16.0226991,44.036979 L16.0225313,43.9801074 Z" fill="#FFFFFF"></path>
            <path d="M22.2473109,55.0016685 C19.8028266,53.5197852 17.8946859,51.2431004 16.8745922,48.591007 C16.5965766,47.8683455 15.7833422,47.5070848 15.0582797,47.7842988 C14.3330766,48.0609525 13.9704047,48.8708825 14.2482797,49.593544 C15.4899984,52.8217774 17.8115766,55.5923767 20.7853734,57.3948981 C21.0137484,57.5332949 21.2658891,57.5992716 21.5149359,57.5992716 C21.9895453,57.5992716 22.4529047,57.3598786 22.7177016,56.9264778 C23.1214359,56.2655907 22.9106391,55.4038319 22.2473109,55.0016685" fill="#FFFFFF"></path>
            <path d="M29.8125,15.8360918 C28.1065781,15.8360918 26.71875,14.4536638 26.71875,12.7543798 C26.71875,11.0550957 28.1065781,9.6726677 29.8125,9.6726677 C31.5184219,9.6726677 32.90625,11.0550957 32.90625,12.7543798 C32.90625,14.4536638 31.5184219,15.8360918 29.8125,15.8360918 M29.8125,6.87111128 C26.5557656,6.87111128 23.90625,9.51031751 23.90625,12.7543798 C23.90625,15.998442 26.5557656,18.6376482 29.8125,18.6376482 C33.0692344,18.6376482 35.71875,15.998442 35.71875,12.7543798 C35.71875,9.51031751 33.0692344,6.87111128 29.8125,6.87111128" fill="#FFFFFF"></path>
            <path d="M41.2371844,29.8365619 C39.5312625,29.8365619 38.1434344,28.4541339 38.1434344,26.7548498 C38.1434344,25.0555658 39.5312625,23.6731377 41.2371844,23.6731377 C42.9431062,23.6731377 44.3309344,25.0555658 44.3309344,26.7548498 C44.3309344,28.4541339 42.9429656,29.8365619 41.2371844,29.8365619 M47.5312781,29.8365619 L46.2656531,29.8365619 C46.8216844,28.9396436 47.1434344,27.8841572 47.1434344,26.7548498 C47.1434344,23.5107875 44.4939188,20.8715813 41.2371844,20.8715813 C37.98045,20.8715813 35.3309344,23.5107875 35.3309344,26.7548498 C35.3307937,27.8841572 35.6525438,28.9396436 36.208575,29.8365619 L29.2500281,29.8365619 C28.4734969,29.8365619 27.8437781,30.4636903 27.8437781,31.2373401 C27.8437781,32.0109899 28.4734969,32.6381183 29.2500281,32.6381183 L47.5312781,32.6381183 C48.3078094,32.6381183 48.9375281,32.0109899 48.9375281,31.2373401 C48.9375281,30.4636903 48.30795,29.8365619 47.5312781,29.8365619" fill="#FFFFFF"></path>
        </g>
    </g>
</svg>