<?xml version="1.0" encoding="UTF-8"?>
<svg width="58px" height="58px" viewBox="0 0 58 58" version="1.1" xmlns="http://www.w3.org/2000/svg" xmlns:xlink="http://www.w3.org/1999/xlink">
    <!-- Generator: Sketch 54.1 (76490) - https://sketchapp.com -->
    <title>Icon / Coins</title>
    <desc>Created with Sketch.</desc>
    <g id="Icon-/-Coins" stroke="none" stroke-width="1" fill="none" fill-rule="evenodd">
        <g transform="translate(4.000000, 3.000000)" fill="#0A1A92">
            <path d="M49.9221371,13.1103115 L49.9221371,10.0177008 C49.3785887,14.7377924 39.0660887,18.9069221 24.9733468,18.9069221 C10.5552016,18.9069221 0.0943145161,14.5428916 0.00278225806,9.6898229 L0.000766129032,9.6898229 L0.000766129032,13.8930901 L0.0241532258,13.6132427 C0.567701613,18.3333344 10.8806048,23.3424031 24.9733468,23.3424031 C39.0660887,23.3424031 49.3785887,19.1732733 49.9221371,14.4531817 C49.9519758,14.1935786 49.952379,13.3726931 49.9221371,13.1103115" ></path>
            <path d="M49.9221371,18.5702718 L49.9221371,15.4776611 C49.3785887,20.1977527 39.0660887,24.3668824 24.9733468,24.3668824 C10.5552016,24.3668824 0.0943145161,20.0028519 0.00278225806,15.1501802 L0.000766129032,15.1501802 L0.000766129032,19.3534473 L0.0241532258,19.0732031 C0.567701613,23.7932947 10.8806048,28.8023634 24.9733468,28.8023634 C39.0660887,28.8023634 49.3785887,24.6332336 49.9221371,19.913142 C49.9519758,19.6535389 49.952379,18.8326534 49.9221371,18.5702718"></path>
            <path d="M49.9221371,24.1703542 L49.9221371,21.0773466 C49.3785887,25.7978351 39.0660887,29.9669649 24.9733468,29.9669649 C10.5552016,29.9669649 0.0943145161,25.6029344 0.00278225806,20.7498656 L0.000766129032,20.7498656 L0.000766129032,24.9531328 L0.0241532258,24.6732855 C0.567701613,29.3933771 10.8806048,34.4024458 24.9733468,34.4024458 C39.0660887,34.4024458 49.3785887,30.233316 49.9221371,25.5132244 C49.9519758,25.2536214 49.952379,24.4327359 49.9221371,24.1703542" ></path>
            <path d="M49.9221371,29.7702779 L49.9221371,26.6776672 C49.3785887,31.3977588 39.0660887,35.5672855 24.9733468,35.5672855 C10.5552016,35.5672855 0.0943145161,31.202858 0.00278225806,26.3501863 L0.000766129032,26.3501863 L0.000766129032,30.5534534 L0.0241532258,30.2732092 C0.567701613,34.9933008 10.8806048,40.0023695 24.9733468,40.0023695 C39.0660887,40.0023695 49.3785887,35.8332397 49.9221371,31.1131481 C49.9519758,30.853545 49.952379,30.0326595 49.9221371,29.7702779" ></path>
            <path d="M49.9221371,35.7411481 L49.9221371,32.6481405 C49.3785887,37.368629 39.0660887,41.5377588 24.9733468,41.5377588 C10.5552016,41.5377588 0.0943145161,37.1737282 0.00278225806,32.3206595 L0.000766129032,32.3206595 L0.000766129032,36.5239267 L0.0241532258,36.2440794 C0.567701613,40.964171 10.8806048,45.9732397 24.9733468,45.9732397 C39.0660887,45.9732397 49.3785887,41.8041099 49.9221371,37.0840183 C49.9519758,36.8244153 49.952379,36.0035298 49.9221371,35.7411481" ></path>
            <path d="M49.9221371,41.7118198 L49.9221371,38.6192092 C49.3785887,43.3393008 39.0660887,47.5084305 24.9733468,47.5084305 C10.5552016,47.5084305 0.0943145161,43.1444 0.00278225806,38.2913313 L0.000766129032,38.2913313 L0.000766129032,42.4945985 L0.0241532258,42.2147511 C0.567701613,46.9348427 10.8806048,51.9439115 24.9733468,51.9439115 C39.0660887,51.9439115 49.3785887,47.7747817 49.9221371,43.0546901 C49.9519758,42.795087 49.952379,41.9742015 49.9221371,41.7118198" ></path>
            <path d="M24.9732661,1.04805802 C18.9063306,1.04805802 13.0579435,1.88204275 8.50552419,3.39679084 C4.03052419,4.88534046 1.27568548,6.86292824 0.749072581,8.96595115 C0.507540323,9.92934046 0.775282258,10.9082107 1.54423387,11.8747756 C4.59705645,15.7112641 14.012379,18.2890351 24.9732661,18.2890351 C35.9341532,18.2890351 45.3494758,15.7112641 48.4018952,11.8747756 C49.17125,10.9082107 49.4389919,9.92934046 49.1974597,8.96595115 C48.6708468,6.86292824 45.9160081,4.88534046 41.4410081,3.39679084 C36.8885887,1.88204275 31.0402016,1.04805802 24.9732661,1.04805802 M24.9732661,18.9400275 C13.8196371,18.9400275 4.19504032,16.262226 1.02366935,12.2764855 C0.122862903,11.1439969 -0.185604839,9.97776794 0.107137097,8.80995115 C0.689798387,6.48384427 3.59705645,4.34192061 8.29383065,2.77993588 C12.9127823,1.24335573 18.8361694,0.397065649 24.9732661,0.397065649 C31.1103629,0.397065649 37.03375,1.24335573 41.6527016,2.77993588 C46.3494758,4.34192061 49.2567339,6.48384427 49.8393952,8.80995115 C50.1321371,9.97776794 49.8236694,11.1439969 48.9228629,12.2764855 C45.7514919,16.262226 36.1268952,18.9400275 24.9732661,18.9400275"></path>
            <path d="M24.9732661,1.54753588 C14.0736694,1.54753588 4.87407258,4.63339847 4.03012097,8.57349008 C3.84020161,9.45947481 4.10834677,10.3510168 4.82729839,11.2235053 C7.53455645,14.5102229 15.6309274,16.7184366 24.9732661,16.7184366 C34.3156048,16.7184366 42.4119758,14.5102229 45.1192339,11.2235053 C45.8381855,10.3510168 46.1063306,9.45947481 45.9164113,8.57349008 C45.0724597,4.63339847 35.8728629,1.54753588 24.9732661,1.54753588 M24.9732661,17.3690321 C15.4422177,17.3690321 7.13979839,15.0643603 4.31358871,11.6339481 C3.46278226,10.6014901 3.14987903,9.52655878 3.38294355,8.43892519 C4.30431452,4.1392 13.5861694,0.896543511 24.9732661,0.896543511 C36.3603629,0.896543511 45.6422177,4.1392 46.5635887,8.43892519 C46.7966532,9.52655878 46.4833468,10.6014901 45.6329435,11.6339481 C42.8067339,15.0643603 34.5043145,17.3690321 24.9732661,17.3690321"></path>
            <path d="M20.2016935,7.19934046 C23.49,7.20172214 25.6964516,8.18098931 25.7670161,9.72789008 C25.8371774,11.3244092 23.0645968,12.350913 18.5174194,12.350516 C14.3807258,12.3501191 12.1617742,11.4450809 12.4883871,10.7635237 C12.7004839,10.330058 14.0654032,10.070058 14.1190323,10.1323786 C14.7996774,10.8635542 16.4016935,11.3220275 18.7464516,11.3228214 C21.4303226,11.3232183 23.1629839,10.7047756 23.2242742,9.73940153 C23.2875806,8.77363053 21.993629,8.19130992 19.7222581,8.19011908 C17.9940323,8.18892824 16.7730645,8.41121832 15.7654032,8.73274504 C14.6928226,8.69503511 14.315,8.43463817 14.5621774,7.93885191 L16.1678226,4.89069924 C16.4081452,4.45723359 16.9597581,4.1726229 17.6065323,4.17341679 L23.973871,4.18214962 C24.6008871,4.18294351 24.9162097,4.35680611 24.9198387,4.70334046 L24.9202419,4.76526412 C24.923871,5.09909618 24.5891935,5.27216489 23.9158065,5.27137099 L17.8783065,5.2646229 L16.9339516,7.55619542 C17.9218548,7.33390534 19.0037097,7.19854656 20.2016935,7.19934046"></path>
            <path d="M26.9995968,9.71320305 C26.8495968,8.21234809 28.7955645,7.1247145 31.5931452,7.12669924 C34.3709677,7.12868397 36.1072581,8.03332519 36.3637097,8.49537099 C36.5939516,8.9165313 35.446371,8.99790534 35.3576613,8.94669924 C34.6350806,8.40208855 33.6028226,7.9805313 31.9391129,7.97934046 C30.1125,7.97814962 28.875,8.70694351 29.066129,9.71399695 C29.2532258,10.731371 30.9669355,11.4716763 33.1145161,11.4720733 C35.0262097,11.4724702 35.8358871,11.0517069 36.0975806,10.5074931 C36.1419355,10.456287 37.4487903,10.5285313 37.675,10.9699359 C37.9032258,11.4216611 36.7903226,12.3251115 33.3330645,12.3247145 C29.8020161,12.3243176 27.1451613,11.2346992 26.9995968,9.71320305"></path>
            <path d="M33.3869355,13.351258 C32.8550806,13.351258 32.3792742,13.1758076 32.3232258,12.9590748 L30.4329032,6.42334962 C30.3635484,6.20661679 30.6191935,6.03156336 31.0050806,6.03196031 C31.3905645,6.03235725 31.773629,6.20780763 31.8603226,6.42454046 L34.223629,12.9590748 C34.2933871,13.1758076 33.9187903,13.351258 33.3869355,13.351258" ></path>
        </g>
    </g>
</svg>