<?xml version="1.0" encoding="UTF-8"?>
<svg width="74px" height="74px" viewBox="0 0 74 74" version="1.1" xmlns="http://www.w3.org/2000/svg" xmlns:xlink="http://www.w3.org/1999/xlink">
    <!-- Generator: Sketch 55.1 (78136) - https://sketchapp.com -->
    <title>Icon / Collections</title>
    <desc>Created with Sketch.</desc>
    <defs>
        <polygon points="0 0 53 0 53 71.9999859 0 71.9999859"></polygon>
    </defs>
    <g id="Icon-/-Collections" stroke="none" stroke-width="1" fill="none" fill-rule="evenodd">
        <g transform="translate(10.000000, 1.000000)">
            <path d="M9.76315789,11.2499859 C10.5330526,11.2499859 11.1578947,10.6199859 11.1578947,9.84373594 C11.1578947,9.06748594 10.5330526,8.43748594 9.76315789,8.43748594 C8.99326316,8.43748594 8.36842105,9.06748594 8.36842105,9.84373594 C8.36842105,10.6199859 8.99326316,11.2499859 9.76315789,11.2499859" fill="#FFFFFF"></path>
            <path d="M9.76315789,19.6874859 C10.5330526,19.6874859 11.1578947,19.0574859 11.1578947,18.2812359 C11.1578947,17.5049859 10.5330526,16.8749859 9.76315789,16.8749859 C8.99326316,16.8749859 8.36842105,17.5049859 8.36842105,18.2812359 C8.36842105,19.0574859 8.99326316,19.6874859 9.76315789,19.6874859" fill="#FFFFFF"></path>
            <g >
                <mask fill="white">
                    <use xlink:href="#path-1"></use>
                </mask>
                <g ></g>
                <path d="M2.78947368,4.21873594 C2.78947368,3.44304844 3.41487368,2.81248594 4.18421053,2.81248594 L33.4736842,2.81248594 L33.4736842,18.2812359 C33.4736842,19.0579078 34.0981079,19.6874859 34.8684211,19.6874859 L50.2105263,19.6874859 L50.2105263,67.7812359 C50.2105263,68.5569234 49.5851263,69.1874859 48.8157895,69.1874859 L4.18421053,69.1874859 C3.41487368,69.1874859 2.78947368,68.5569234 2.78947368,67.7812359 L2.78947368,4.21873594 Z M36.2631579,4.80162656 L48.2382289,16.8749859 L36.2631579,16.8749859 L36.2631579,4.80162656 Z M4.18421053,71.9999859 L48.8157895,71.9999859 C51.1231026,71.9999859 53,70.1075953 53,67.7812359 L53,18.2812359 C53,17.8988766 52.8425342,17.5397203 52.5913421,17.2870172 L35.8545,0.412017187 C35.6044237,0.159876562 35.2482079,-1.40625e-05 34.8684211,-1.40625e-05 L4.18421053,-1.40625e-05 C1.87689737,-1.40625e-05 0,1.89237656 0,4.21873594 L0,67.7812359 C0,70.1075953 1.87689737,71.9999859 4.18421053,71.9999859 L4.18421053,71.9999859 Z" fill="#FFFFFF" mask="url(#mask-2)"></path>
            </g>
            <path d="M9.76315789,28.9687359 L43.2368421,28.9687359 C44.0071553,28.9687359 44.6315789,28.3391578 44.6315789,27.5624859 C44.6315789,26.7858141 44.0071553,26.1562359 43.2368421,26.1562359 L9.76315789,26.1562359 C8.99284474,26.1562359 8.36842105,26.7858141 8.36842105,27.5624859 C8.36842105,28.3391578 8.99284474,28.9687359 9.76315789,28.9687359" fill="#FFFFFF"></path>
            <path d="M9.76315789,37.4063063 L43.2368421,37.4063063 C44.0071553,37.4063063 44.6315789,36.7767281 44.6315789,36.0000563 C44.6315789,35.2232438 44.0071553,34.5938063 43.2368421,34.5938063 L9.76315789,34.5938063 C8.99284474,34.5938063 8.36842105,35.2232438 8.36842105,36.0000563 C8.36842105,36.7767281 8.99284474,37.4063063 9.76315789,37.4063063" fill="#FFFFFF"></path>
            <path d="M15.3421053,11.2499859 L26.5,11.2499859 C27.2703132,11.2499859 27.8947368,10.6204078 27.8947368,9.84373594 C27.8947368,9.06706406 27.2703132,8.43748594 26.5,8.43748594 L15.3421053,8.43748594 C14.5717921,8.43748594 13.9473684,9.06706406 13.9473684,9.84373594 C13.9473684,10.6204078 14.5717921,11.2499859 15.3421053,11.2499859" fill="#FFFFFF"></path>
            <path d="M15.3421053,19.6874859 L26.5,19.6874859 C27.2703132,19.6874859 27.8947368,19.0579078 27.8947368,18.2812359 C27.8947368,17.5045641 27.2703132,16.8749859 26.5,16.8749859 L15.3421053,16.8749859 C14.5717921,16.8749859 13.9473684,17.5045641 13.9473684,18.2812359 C13.9473684,19.0579078 14.5717921,19.6874859 15.3421053,19.6874859" fill="#FFFFFF"></path>
            <path d="M40.4473684,51.4688063 C39.6780316,51.4688063 39.0526316,50.8382437 39.0526316,50.0625563 C39.0526316,49.2868688 39.6780316,48.6563063 40.4473684,48.6563063 C40.9415237,48.6563063 41.4628763,48.9106969 41.9559158,49.3913531 C42.5094868,49.9312125 43.3920763,49.9164469 43.9282132,49.3588687 C44.4637921,48.8007281 44.4490079,47.9102906 43.8955763,47.3702906 C43.1877474,46.6792594 42.4795,46.2887438 41.8421053,46.0755562 L41.8421053,44.4375563 C41.8421053,43.6608844 41.2176816,43.0313063 40.4473684,43.0313063 C39.6770553,43.0313063 39.0526316,43.6608844 39.0526316,44.4375563 L39.0526316,46.0855406 C37.4290184,46.6661813 36.2631579,48.2295094 36.2631579,50.0625563 C36.2631579,52.3889156 38.1400553,54.2813063 40.4473684,54.2813063 C41.2167053,54.2813063 41.8421053,54.9118688 41.8421053,55.6875563 C41.8421053,56.4632437 41.2167053,57.0938063 40.4473684,57.0938063 C39.8513974,57.0938063 39.2084237,56.7159469 38.6364421,56.0298375 C38.1406132,55.4354156 37.2606737,55.3584938 36.6712579,55.8584156 C36.0817026,56.3583375 36.0054105,57.2454 36.5012395,57.8398219 C37.2465868,58.7340563 38.1237368,59.357025 39.0526316,59.6711813 L39.0526316,61.3125563 C39.0526316,62.0892281 39.6770553,62.7188063 40.4473684,62.7188063 C41.2176816,62.7188063 41.8421053,62.0892281 41.8421053,61.3125563 L41.8421053,59.6645719 C43.4657184,59.0839312 44.6315789,57.5206031 44.6315789,55.6875563 C44.6315789,53.3611969 42.7546816,51.4688063 40.4473684,51.4688063" fill="#FFFFFF"></path>
            <path d="M9.76315789,45.8438062 L29.2894737,45.8438062 C30.0597868,45.8438062 30.6842105,45.2142281 30.6842105,44.4375563 C30.6842105,43.6608844 30.0597868,43.0313063 29.2894737,43.0313063 L9.76315789,43.0313063 C8.99284474,43.0313063 8.36842105,43.6608844 8.36842105,44.4375563 C8.36842105,45.2142281 8.99284474,45.8438062 9.76315789,45.8438062" fill="#FFFFFF"></path>
            <path d="M9.76315789,54.2813063 L29.2894737,54.2813063 C30.0597868,54.2813063 30.6842105,53.6517281 30.6842105,52.8750563 C30.6842105,52.0983844 30.0597868,51.4688063 29.2894737,51.4688063 L9.76315789,51.4688063 C8.99284474,51.4688063 8.36842105,52.0983844 8.36842105,52.8750563 C8.36842105,53.6517281 8.99284474,54.2813063 9.76315789,54.2813063" fill="#FFFFFF"></path>
            <path d="M9.76315789,62.7188063 L29.2894737,62.7188063 C30.0597868,62.7188063 30.6842105,62.0892281 30.6842105,61.3125563 C30.6842105,60.5358844 30.0597868,59.9063063 29.2894737,59.9063063 L9.76315789,59.9063063 C8.99284474,59.9063063 8.36842105,60.5358844 8.36842105,61.3125563 C8.36842105,62.0892281 8.99284474,62.7188063 9.76315789,62.7188063" fill="#FFFFFF"></path>
        </g>
    </g>
</svg>