<?xml version="1.0" encoding="UTF-8"?>
<svg width="74px" height="74px" viewBox="0 0 74 74" version="1.1" xmlns="http://www.w3.org/2000/svg" xmlns:xlink="http://www.w3.org/1999/xlink">
    <!-- Generator: Sketch 55.1 (78136) - https://sketchapp.com -->
    <title>Icon / Contact Centres</title>
    <desc>Created with Sketch.</desc>
    <defs>
        <polygon points="2.28021337e-05 0 71.8597421 0 71.8597421 68.9462896 2.28021337e-05 68.9462896"></polygon>
    </defs>
    <g id="Icon-/-Contact-Centres" stroke="none" stroke-width="1" fill="none" fill-rule="evenodd">
        <g transform="translate(2.000000, 2.000000)">
            <mask fill="white">
                <use xlink:href="#path-1"></use>
            </mask>
            <g></g>
            <path d="M37.2830737,66.1819332 L37.2830737,58.8011817 C42.451214,58.4470473 46.2048982,56.0775788 46.2048982,52.959088 L46.2048982,50.5759882 C51.4411088,51.6653731 67.9654596,55.9414057 69.0808281,66.1819332 L37.2830737,66.1819332 Z M28.3612491,52.9727193 L28.3612491,52.9319658 L28.3612491,48.2746766 C30.6220211,49.3244322 33.0914947,49.8459373 35.5830035,49.7998436 L36.2630035,49.7998436 C38.7546526,49.8459373 41.2241263,49.3244322 43.4848982,48.2746766 L43.4848982,52.9727193 C43.4848982,54.2664342 40.5336,56.1319637 35.9230737,56.1319637 C31.3125474,56.1319637 28.3612491,54.2664342 28.3612491,52.9727193 L28.3612491,52.9727193 Z M34.5630737,66.1410391 L2.7653193,66.1410391 C3.83970526,55.9142835 20.4458807,51.6382509 25.6411088,50.5352346 L25.6411088,52.9727193 C25.6411088,56.0639475 29.3949333,58.4199251 34.5630737,58.8146725 L34.5630737,66.1410391 Z M40.003214,40.2674444 C40.003214,40.936646 39.4613193,41.4795116 38.7928281,41.4795116 C38.1243368,41.4795116 37.5823018,40.936646 37.5823018,40.2674444 C37.5823018,39.5981022 38.1243368,39.0555177 38.7928281,39.0555177 C39.4613193,39.0555177 40.003214,39.5981022 40.003214,40.2674444 L40.003214,40.2674444 Z M22.4178105,32.4509108 L22.4722667,32.4645422 C22.475214,32.1288171 22.3540912,31.8039128 22.1323368,31.5520839 C20.2690386,29.4142081 19.4121965,27.4667499 19.6433544,25.8599352 C19.7542316,24.9649026 20.1957754,24.1439291 20.8811088,23.5584831 C22.6763368,23.5584831 29.0412491,23.2181206 33.1213895,19.6911104 C37.7164772,22.3361572 42.9176,23.743701 48.2178105,23.7764444 C49.1289684,23.7764444 50.0538807,23.7764444 51.0194947,23.6266399 C51.6860211,24.1964872 52.1215298,24.9907601 52.2434947,25.8599352 C52.4746526,27.4396277 51.6179509,29.4142081 49.7546526,31.5520839 C49.5327579,31.8039128 49.4117754,32.1288171 49.4147228,32.4645422 L49.4147228,33.1726705 L41.499214,37.4214403 C39.928407,35.9322489 37.4492491,36.0002652 35.9619509,37.5730717 C34.474793,39.1458782 34.5425825,41.6281919 36.1135298,43.1172428 C37.6843368,44.6064342 40.1634947,44.5384179 41.6506526,42.9656114 C42.3399158,42.2366847 42.7237754,41.2709658 42.7233544,40.2674444 C42.7293895,40.1449026 42.7293895,40.0223609 42.7233544,39.8998191 L48.9657404,36.5498762 C48.4300211,39.2351145 47.1693895,41.7217845 45.3209684,43.7400697 C42.9100211,46.064147 39.6463018,47.2864729 36.3038456,47.1171348 L35.6238456,47.1171348 C32.2885474,47.2829597 29.0321263,46.066536 26.6203368,43.7535605 C22.3226526,39.4640371 22.4178105,32.5190676 22.4178105,32.4509108 L22.4178105,32.4509108 Z M50.0402667,21.0255788 C44.3333193,21.3559637 38.6621614,19.9302916 33.7877754,16.9403853 C33.2361965,16.5523833 32.4839158,16.6278477 32.0197754,17.117312 C29.2996351,20.0451043 24.3355649,20.7261104 21.9418807,20.8757743 C22.6763368,11.2480961 28.4972491,9.15097393 33.3933895,9.15097393 C34.1726175,9.14535275 34.9510035,9.20915316 35.7190035,9.34167251 C35.8986526,9.37849124 36.0834947,9.37849124 36.2630035,9.34167251 C37.0311439,9.20957475 37.8093895,9.14577434 38.5887579,9.15097393 C43.4440561,9.15097393 49.2921965,11.3026216 49.9721965,21.012088 L50.0402667,21.0255788 Z M19.0993544,32.1921959 C17.9437053,31.8034912 16.936407,31.0662733 16.2161263,30.0814424 L16.2840561,30.0950737 C14.9240561,28.1068619 14.8016702,25.097422 16.0120561,21.1209984 L17.0048982,20.4537642 C17.4227228,20.174532 17.6526175,19.6877377 17.6033544,19.187312 C17.3745825,15.1172957 18.6966877,11.1117825 21.3027228,7.97994134 C24.376407,4.49382525 29.3132491,2.75069695 35.9230737,2.72343422 C42.5327579,2.69617149 47.4697404,4.49382525 50.5978807,7.97994134 C53.2039158,11.1117825 54.5258807,15.1172957 54.2972491,19.187312 C54.2478456,19.6877377 54.4778807,20.174532 54.8955649,20.4537642 L55.888407,21.1209984 C57.098793,25.0836501 57.0172491,28.1068619 55.616407,30.0950737 C54.891214,31.0807479 53.8794246,31.8179658 52.7194246,32.2058273 C54.3601263,30.3367845 55.1616702,27.8749882 54.936407,25.3968904 C54.6815298,23.9060126 53.9053895,22.5545401 52.746793,21.5840432 C52.1619509,7.96630998 42.6280561,6.44114297 38.5206877,6.44114297 C37.6513544,6.43861344 36.7830035,6.50241385 35.9230737,6.63170102 C35.0634246,6.50227332 34.194793,6.43861344 33.3254596,6.44114297 C29.2453193,6.44114297 19.7250386,7.93904725 19.0993544,21.5840432 C17.9333193,22.546811 17.1476351,23.8935055 16.8825123,25.3832591 C16.6557053,27.8614974 17.4575298,30.3239963 19.0993544,32.1921959 L19.0993544,32.1921959 Z M46.2048982,47.7981409 L46.2048982,46.5453202 C46.5585825,46.259202 46.8986526,45.9461022 47.2249684,45.6192305 C49.8384421,42.7379536 51.4841965,39.1089189 51.9306526,35.2425299 C54.2795649,34.8841796 56.3966175,33.6239108 57.8332491,31.7291511 C59.8053193,28.937532 59.9820211,24.9203548 58.3365474,19.881809 C58.2397053,19.5911939 58.0481263,19.341754 57.7925474,19.1736807 L57.0444772,18.6697418 C57.154793,14.1236114 55.5856702,9.69636904 52.6378807,6.23681303 C48.9794947,2.11072546 43.3623719,0.0272346232 35.9230737,-2.81059063e-05 C28.4972491,-2.81059063e-05 22.8666526,2.11072546 19.2081263,6.18228758 C16.2604772,9.64198411 14.6913544,14.0690859 14.8016702,18.6153568 L14.0536,19.1191552 C13.7978807,19.2872285 13.6064421,19.536809 13.5096,19.8272835 C11.863986,24.8930921 12.0408281,28.8830065 14.0128982,31.6747662 C15.4440561,33.5827356 17.5611088,34.857479 19.9153544,35.2288986 C20.3639158,39.1014709 22.0145825,42.735424 24.634793,45.6192305 C24.9585825,45.9453996 25.2989333,46.254424 25.6547228,46.5453202 L25.6547228,47.7981409 C20.4458807,48.8058782 -0.349066667,53.6946196 0.00447719298,67.5844179 C0.00447719298,68.336532 0.613459649,68.9462896 1.36447719,68.9462896 L70.4952842,68.9462896 C71.2463018,68.9462896 71.8552842,68.336532 71.8552842,67.5844179 C72.2089684,53.694479 51.4140211,48.8057377 46.2048982,47.7981409 L46.2048982,47.7981409 Z" fill="#FFFFFF" mask="url(#mask-2)"></path>
        </g>
    </g>
</svg>