<?xml version="1.0" encoding="UTF-8"?>
<svg width="74px" height="74px" viewBox="0 0 74 74" version="1.1" xmlns="http://www.w3.org/2000/svg" xmlns:xlink="http://www.w3.org/1999/xlink">
    <!-- Generator: Sketch 55.1 (78136) - https://sketchapp.com -->
    <title>Icon / Customer Service</title>
    <desc>Created with Sketch.</desc>
    <defs>
        <polygon points="0.0937265625 0 36.0937266 0 36.0937266 39.5999859 0.0937265625 39.5999859"></polygon>
        <polygon points="0.0941539296 0.0277453125 4.86016875 0.0277453125 4.86016875 18.140625 0.0941539296 18.140625"></polygon>
        <polygon points="0.108689063 0.0278015625 4.87461255 0.0278015625 4.87461255 18.140625 0.108689063 18.140625"></polygon>
        <polygon points="0 0.0707466111 71.9999437 0.0707466111 71.9999437 61.59375 0 61.59375"></polygon>
    </defs>
    <g id="Icon-/-Customer-Service" stroke="none" stroke-width="1" fill="none" fill-rule="evenodd">
        <g transform="translate(1.000000, 1.000000)">
            <g transform="translate(5.906250, 0.000000)">
                <mask fill="white">
                    <use xlink:href="#path-1"></use>
                </mask>
                <g></g>
                <path d="M18.0937266,-1.40625e-05 C8.15266406,-1.40625e-05 0.0937265625,8.05892344 0.0937265625,17.9999859 L0.0937265625,31.2000328 C0.0990703125,35.8370016 3.85685156,39.5947828 8.49367969,39.5999859 L9.69377344,39.5999859 L9.69377344,37.2000797 L8.49367969,37.2000797 C5.18182031,37.1960016 2.49771094,34.5120328 2.49377344,31.2000328 L2.49377344,17.9999859 C2.49377344,9.38431406 9.47805469,2.40003281 18.0937266,2.40003281 C26.7095391,2.40003281 33.6936797,9.38431406 33.6936797,17.9999859 L33.6936797,31.2000328 C33.6898828,34.5120328 31.0057734,37.1960016 27.6937734,37.2000797 L26.4936797,37.2000797 L26.4936797,39.5999859 L27.6937734,39.5999859 C32.3307422,39.5947828 36.0883828,35.8370016 36.0937266,31.2000328 L36.0937266,17.9999859 C36.0937266,8.05892344 28.0347891,-1.40625e-05 18.0937266,-1.40625e-05" fill="#FFFFFF" mask="url(#mask-2)"></path>
            </g>
            <g transform="translate(5.906250, 53.859375)">
                <mask fill="white">
                    <use xlink:href="#path-3"></use>
                </mask>
                <g></g>
                <path d="M3.98295,2.69540156 L4.86016875,1.31432344 L2.83334062,0.0277453125 L1.95612188,1.41022969 C-0.696909375,5.59101094 -0.49989375,10.9742766 2.45168438,14.9498859 L2.45168438,18.1406672 L4.85173125,18.1406672 L4.85173125,14.5405266 C4.85187188,14.2681359 4.7592,14.0034797 4.58890312,13.7905734 C2.03768437,10.6013391 1.7942625,6.14366719 3.98295,2.69540156" fill="#FFFFFF" mask="url(#mask-4)"></path>
            </g>
            <g transform="translate(37.125000, 53.859375)">
                <mask fill="white">
                    <use xlink:href="#path-5"></use>
                </mask>
                <g ></g>
                <path d="M3.01259531,1.41028594 L2.13551719,0.0278015625 L0.108689063,1.31423906 L0.985767188,2.69658281 C3.17459531,6.14442656 2.93117344,10.6016766 0.379814063,13.7906297 C0.209517188,14.0035359 0.116845313,14.2681922 0.116985938,14.5405828 L0.116985938,18.1407234 L2.51703281,18.1407234 L2.51703281,14.9498016 C5.46875156,10.9743328 5.66562656,5.59092656 3.01259531,1.41028594" fill="#FFFFFF" mask="url(#mask-6)"></path>
            </g>
            <g transform="translate(0.000000, 10.406250)">
                <mask fill="white">
                    <use xlink:href="#path-7"></use>
                </mask>
                <g ></g>
                <path d="M63.5999906,37.5937453 L54.1200375,37.5937453 C54.6937875,34.8017766 57.1496625,32.7968859 59.9999906,32.7936516 L69.4799437,32.7936516 C68.9061937,35.5857609 66.4503187,37.5906516 63.5999906,37.5937453 L63.5999906,37.5937453 Z M29.7408656,38.7936984 L18.5999906,38.7936984 L15.1643813,33.9937453 L15.6000375,33.9937453 C18.2509594,33.9937453 20.3999906,31.8447141 20.3999906,29.1937922 L20.3999906,27.4406203 C22.743225,28.1780578 25.2566156,28.1780578 27.5999906,27.4406203 L27.5999906,29.1937922 C27.5999906,31.8447141 29.7490219,33.9937453 32.3999438,33.9937453 L33.3599906,33.9937453 L29.7408656,38.7936984 Z M24.0251625,46.3681828 L20.3220844,41.1937453 L27.9252563,41.1937453 L24.0251625,46.3681828 Z M14.3999438,15.9937453 L14.3999438,11.5872609 L32.9291156,2.86822969 C33.3725063,3.99069844 33.6000375,5.18685469 33.6000375,6.39369844 L33.6000375,15.9937453 C33.6000375,21.2957297 29.301975,25.5937922 23.9999906,25.5937922 C18.6981469,25.5937922 14.3999438,21.2957297 14.3999438,15.9937453 L14.3999438,15.9937453 Z M70.7999906,30.3937453 L59.9999906,30.3937453 C55.4976,30.3989484 51.8001469,33.9531047 51.6167719,38.4518391 L47.9998969,44.9629172 L47.9998969,39.9936516 C47.9946938,35.3568234 44.2370531,31.5990422 39.5999438,31.5936984 L35.2139906,31.5936984 L35.1816469,31.5685266 L35.1599906,31.5936984 L32.3999438,31.5936984 C31.0744125,31.5936984 30.0000375,30.5191828 30.0000375,29.1937922 L30.0000375,26.3700422 C33.7078969,24.2293078 35.9943188,20.2752141 35.9999438,15.9937453 L35.9999438,6.39369844 C35.9982563,4.40554219 35.5035375,2.44874531 34.5599438,0.698526562 C34.2577406,0.141792187 33.5745844,-0.0843328125 32.9999906,0.182573437 L12.6888188,9.73930781 C12.2682094,9.93730781 11.9997563,10.3604484 12.0000375,10.8253547 L12.0000375,15.9937453 C12.0056625,20.2752141 14.292225,24.2293078 17.9999438,26.3700422 L17.9999438,29.1937922 C17.9999438,30.5191828 16.9255688,31.5936984 15.6000375,31.5936984 L8.4000375,31.5936984 C3.76306875,31.5990422 0.0052875,35.3568234 -5.625e-05,39.9936516 L-5.625e-05,61.5937922 L2.39999062,61.5937922 L2.39999062,39.9936516 C2.40392813,36.6817922 5.0880375,33.9976828 8.4000375,33.9937453 L12.2184281,33.9937453 L23.0243344,49.0922297 C23.2463813,49.4025891 23.6028656,49.5886359 23.9843813,49.5936984 L23.9999906,49.5936984 C24.3777094,49.5936984 24.73335,49.4158078 24.9600375,49.1137453 L36.3599438,33.9937453 L39.5999438,33.9937453 C42.9120844,33.9976828 45.5961937,36.6817922 45.5999906,39.9936516 L45.5999906,49.5936984 C45.6005531,50.2564641 46.1383031,50.7932297 46.8010688,50.7926672 C47.2364438,50.7922453 47.637225,50.5562766 47.848725,50.1757453 L53.5056469,39.9936516 L60.3853031,39.9936516 L48.6851625,61.5937922 L51.4152563,61.5937922 L63.1200375,39.9936516 L63.5999906,39.9936516 C68.2369594,39.9884484 71.9947406,36.2308078 71.9999437,31.5936984 C71.9999437,30.9310734 71.4627562,30.3937453 70.7999906,30.3937453 L70.7999906,30.3937453 Z" fill="#FFFFFF" mask="url(#mask-8)"></path>
            </g>
        </g>
    </g>
</svg>