<?xml version="1.0" encoding="UTF-8"?>
<svg width="74px" height="74px" viewBox="0 0 74 74" version="1.1" xmlns="http://www.w3.org/2000/svg" xmlns:xlink="http://www.w3.org/1999/xlink">
    <!-- Generator: Sketch 55.1 (78136) - https://sketchapp.com -->
    <title>Icon / Enterprise</title>
    <desc>Created with Sketch.</desc>
    <defs>
        <polygon points="0 0 71.999944 0 71.999944 72 0 72"></polygon>
        <polygon points="0 72 72 72 72 0 0 0"></polygon>
    </defs>
    <g id="Icon-/-Enterprise" stroke="none" stroke-width="1" fill="none" fill-rule="evenodd">
        <g transform="translate(1.000000, 1.000000)">
            <polygon fill="#FFFFFF" points="25.2 26.3999531 27.5999063 26.3999531 27.5999063 24.0000469 25.2 24.0000469"></polygon>
            <polygon fill="#FFFFFF" points="25.2 31.1999062 27.5999063 31.1999062 27.5999063 28.8 25.2 28.8"></polygon>
            <polygon fill="#FFFFFF" points="25.2 35.9998594 27.5999063 35.9998594 27.5999063 33.5999531 25.2 33.5999531"></polygon>
            <polygon fill="#FFFFFF" points="25.2 40.7999531 27.5999063 40.7999531 27.5999063 38.4000469 25.2 38.4000469"></polygon>
            <polygon fill="#FFFFFF" points="29.9999531 26.3999531 32.3998594 26.3999531 32.3998594 24.0000469 29.9999531 24.0000469"></polygon>
            <polygon fill="#FFFFFF" points="29.9999531 31.1999062 32.3998594 31.1999062 32.3998594 28.8 29.9999531 28.8"></polygon>
            <polygon fill="#FFFFFF" points="29.9999531 35.9998594 32.3998594 35.9998594 32.3998594 33.5999531 29.9999531 33.5999531"></polygon>
            <polygon fill="#FFFFFF" points="29.9999531 40.7999531 32.3998594 40.7999531 32.3998594 38.4000469 29.9999531 38.4000469"></polygon>
            <polygon fill="#FFFFFF" points="34.8000469 26.3999531 37.1999531 26.3999531 37.1999531 24.0000469 34.8000469 24.0000469"></polygon>
            <polygon fill="#FFFFFF" points="34.8000469 31.1999062 37.1999531 31.1999062 37.1999531 28.8 34.8000469 28.8"></polygon>
            <polygon fill="#FFFFFF" points="34.8000469 35.9998594 37.1999531 35.9998594 37.1999531 33.5999531 34.8000469 33.5999531"></polygon>
            <polygon fill="#FFFFFF" points="34.8000469 40.7999531 37.1999531 40.7999531 37.1999531 38.4000469 34.8000469 38.4000469"></polygon>
            <polygon fill="#FFFFFF" points="39.6 26.3999531 42.0000469 26.3999531 42.0000469 24.0000469 39.6 24.0000469"></polygon>
            <polygon fill="#FFFFFF" points="29.9999531 21.6 32.3998594 21.6 32.3998594 19.2000937 29.9999531 19.2000937"></polygon>
            <polygon fill="#FFFFFF" points="34.8000469 21.6 37.1999531 21.6 37.1999531 19.2000937 34.8000469 19.2000937"></polygon>
            <polygon fill="#FFFFFF" points="39.6 21.6 42.0000469 21.6 42.0000469 19.2000937 39.6 19.2000937"></polygon>
            <polygon fill="#FFFFFF" points="39.6 31.1999062 42.0000469 31.1999062 42.0000469 28.8 39.6 28.8"></polygon>
            <polygon fill="#FFFFFF" points="39.6 35.9998594 42.0000469 35.9998594 42.0000469 33.5999531 39.6 33.5999531"></polygon>
            <polygon fill="#FFFFFF" points="39.6 40.7999531 42.0000469 40.7999531 42.0000469 38.4000469 39.6 38.4000469"></polygon>
            <polygon fill="#FFFFFF" points="44.3999531 26.3999531 46.7998594 26.3999531 46.7998594 24.0000469 44.3999531 24.0000469"></polygon>
            <polygon fill="#FFFFFF" points="44.3999531 31.1999062 46.7998594 31.1999062 46.7998594 28.8 44.3999531 28.8"></polygon>
            <polygon fill="#FFFFFF" points="44.3999531 35.9998594 46.7998594 35.9998594 46.7998594 33.5999531 44.3999531 33.5999531"></polygon>
            <polygon fill="#FFFFFF" points="44.3999531 40.7999531 46.7998594 40.7999531 46.7998594 38.4000469 44.3999531 38.4000469"></polygon>
            <g>
                <g>
                    <mask fill="white">
                        <use xlink:href="#path-1"></use>
                    </mask>
                    <g></g>
                    <path d="M69.6001781,61.1999437 L67.4258344,61.1999437 C66.7692563,60.0663656 65.8176469,59.1320531 64.6722563,58.4962875 C66.5024906,56.5788656 66.4318969,53.5403812 64.5141938,51.7100062 C62.5966313,49.8796312 59.5582875,49.9503656 57.7277719,51.8679281 C55.9573031,53.7226312 55.9573031,56.6414437 57.7277719,58.4961469 C57.1782094,58.8014437 56.6706938,59.1770531 56.2181625,59.6136937 C55.7622563,57.6078187 54.4721625,55.8917719 52.6721625,54.8962875 C54.3921469,53.1141469 54.4481156,50.3072719 52.8001312,48.4583344 L52.8001312,20.3999906 L69.6001781,20.3999906 L69.6001781,61.1999437 L69.6001781,61.1999437 Z M58.8000375,55.2000375 C58.8000375,53.8743656 59.8744125,52.8001312 61.2000844,52.8001312 C62.525475,52.8001312 63.5999906,53.8743656 63.5999906,55.2000375 C63.5999906,56.5255688 62.525475,57.5999438 61.2000844,57.5999438 C59.8752562,57.5983969 58.801725,56.5248656 58.8000375,55.2000375 L58.8000375,55.2000375 Z M65.9998969,69.5998969 L56.3999906,69.5998969 L56.3999906,64.8000844 C56.3999906,62.1490219 58.5490219,59.9999906 61.2000844,59.9999906 C63.8508656,59.9999906 65.9998969,62.1490219 65.9998969,64.8000844 L65.9998969,69.5998969 Z M53.9999437,64.8000844 L53.9999437,69.5998969 L44.4000375,69.5998969 L44.4000375,61.1999437 C44.4000375,58.5490219 46.5490687,56.3999906 49.1999906,56.3999906 C51.8509125,56.3999906 53.9999437,58.5490219 53.9999437,61.1999437 L53.9999437,64.8000844 Z M43.308225,57.0742875 C42.5046938,55.6576313 41.3092406,54.5033813 39.8654438,53.7501938 C42.3999281,51.6155062 42.7239281,47.8303031 40.5892406,45.2956781 C38.4545531,42.7610531 34.6692094,42.4370531 32.134725,44.5717406 C29.6001,46.7065687 29.2761,50.4919125 31.4107875,53.0263969 C31.6310063,53.2878188 31.8730219,53.529975 32.134725,53.7501938 C30.6907875,54.5033813 29.4953344,55.6576313 28.6916625,57.0742875 C28.0608188,56.1742875 27.2333813,55.4295375 26.2722094,54.8964281 C28.1120063,53.0143031 28.0776938,49.9970531 26.1955688,48.1573969 C24.9836625,46.9726312 23.2340063,46.5208031 21.6000844,46.9703812 L21.6000844,2.39999062 L50.4000844,2.39999062 L50.4000844,46.9703812 C50.0090062,46.8625219 49.6055531,46.8052875 49.1999906,46.8000844 C46.5561,46.7930531 44.4070687,48.9305531 44.4000375,51.574725 C44.3966625,52.8119438 44.8726781,54.0023344 45.7278187,54.8964281 C44.7665062,55.4295375 43.9392094,56.1742875 43.308225,57.0742875 L43.308225,57.0742875 Z M32.3999438,49.1999906 C32.3999438,47.2116937 34.0117875,45.5999906 35.9999437,45.5999906 C37.9882406,45.5999906 39.5999437,47.2116937 39.5999437,49.1999906 C39.5999437,51.1882875 37.9882406,52.8001312 35.9999437,52.8001312 C34.0126313,52.7978812 32.4020531,51.1874437 32.3999438,49.1999906 L32.3999438,49.1999906 Z M41.9999906,69.5998969 L30.0000375,69.5998969 L30.0000375,61.1999437 C30.0000375,57.8863969 32.6862563,55.2000375 35.9999438,55.2000375 C39.3136313,55.2000375 41.9999906,57.8863969 41.9999906,61.1999437 L41.9999906,69.5998969 Z M27.5999906,69.5998969 L17.9999437,69.5998969 L17.9999437,61.1999437 C17.9999437,58.5490219 20.1491156,56.3999906 22.8000375,56.3999906 C25.4509594,56.3999906 27.5999906,58.5490219 27.5999906,61.1999437 L27.5999906,69.5998969 Z M15.781725,59.6138344 C15.3291937,59.1771938 14.8218188,58.8015844 14.2722562,58.4962875 C16.1024906,56.5788656 16.0318969,53.5403812 14.1143344,51.7100062 C12.1966312,49.8794906 9.1582875,49.9503656 7.32777188,51.8679281 C5.55730312,53.7226312 5.55730312,56.6414437 7.32777188,58.4961469 C6.18238125,59.1319125 5.23077187,60.066225 4.57405313,61.1998031 L2.39999062,61.1998031 L2.39999062,20.3999906 L19.2000375,20.3999906 L19.2000375,48.458475 C17.5520531,50.3074125 17.6077406,53.1142875 19.3278656,54.8964281 C17.527725,55.8919125 16.2379125,57.6079594 15.781725,59.6138344 L15.781725,59.6138344 Z M8.4000375,55.2000375 C8.4000375,53.8743656 9.4744125,52.8001312 10.7999437,52.8001312 C12.125475,52.8001312 13.1999906,53.8743656 13.1999906,55.2000375 C13.1999906,56.5255688 12.125475,57.5999438 10.7999437,57.5999438 C9.47525625,57.5983969 8.401725,56.5248656 8.4000375,55.2000375 L8.4000375,55.2000375 Z M15.6000375,69.5998969 L5.99999063,69.5998969 L5.99999063,64.8000844 C5.99999063,62.1490219 8.14902188,59.9999906 10.7999438,59.9999906 C13.4510063,59.9999906 15.6000375,62.1490219 15.6000375,64.8000844 L15.6000375,69.5998969 Z M22.8000375,49.1999906 C24.1255687,49.1999906 25.2000844,50.2745062 25.2000844,51.5998969 C25.2000844,52.9255687 24.1255687,54.0000844 22.8000375,54.0000844 C21.4743656,54.0000844 20.3999906,52.9255687 20.3999906,51.5998969 C20.4016781,50.2750687 21.4752094,49.2016781 22.8000375,49.1999906 L22.8000375,49.1999906 Z M51.6000375,51.5998969 C51.6000375,52.9255687 50.5255219,54.0000844 49.1999906,54.0000844 C47.8744594,54.0000844 46.7999437,52.9255687 46.7999437,51.5998969 C46.7999437,50.2745062 47.8744594,49.1999906 49.1999906,49.1999906 C50.5248188,49.2016781 51.59835,50.2750687 51.6000375,51.5998969 L51.6000375,51.5998969 Z M70.8013969,17.9999435 L70.7999906,17.9999435 L52.7999906,17.9999435 L52.7999906,1.2000375 C52.8004125,0.53769375 52.2637875,-5.64985115e-05 51.6014437,-5.64985115e-05 L51.6000375,-5.64985115e-05 L20.3999906,-5.64985115e-05 C19.7376469,-5.64985115e-05 19.2004594,0.5362875 19.2000375,1.19863125 L19.2000375,1.2000375 L19.2000375,17.9999435 L1.2000375,17.9999435 C0.537553125,17.9995219 -5.64985115e-05,18.5362875 -5.64985115e-05,19.1986313 L-5.64985115e-05,19.2000375 L-5.64985115e-05,62.4000375 C-5.64985115e-05,63.0623813 0.5362875,63.5994281 1.19863125,63.5999906 L1.2000375,63.5999906 L3.70850625,63.5999906 C3.63889687,63.9962719 3.60261563,64.3976156 3.60008437,64.8000844 L3.60008437,70.8001313 C3.59952188,71.462475 4.1362875,72.0000846 4.79863125,72.0000846 L4.8000375,72.0000846 L67.1999906,72.0000846 C67.862475,72.0000846 68.3995219,71.4637406 68.4000844,70.8012563 L68.4000844,70.8001313 L68.4000844,64.8000844 C68.3975531,64.3976156 68.3612719,63.9962719 68.2915219,63.5999906 L70.7999906,63.5999906 C71.4623344,63.6004125 71.9999435,63.0637875 71.9999435,62.4013031 L71.9999435,62.4000375 L71.9999435,19.2000375 C71.9999435,18.5376938 71.4637406,18.0005063 70.8013969,17.9999435 L70.8013969,17.9999435 Z" fill="#FFFFFF" mask="url(#mask-2)"></path>
                </g>
                <mask fill="white">
                    <use xlink:href="#path-3"></use>
                </mask>
                <g></g>
                <polygon fill="#FFFFFF" mask="url(#mask-4)" points="56.3999063 46.8 58.7999531 46.8 58.7999531 27.5999063 56.3999063 27.5999063"></polygon>
                <polygon fill="#FFFFFF" mask="url(#mask-4)" points="63.6000469 46.8 65.9999531 46.8 65.9999531 27.5999063 63.6000469 27.5999063"></polygon>
                <polygon fill="#FFFFFF" mask="url(#mask-4)" points="6.00004687 46.8 8.40009375 46.8 8.40009375 27.5999063 6.00004687 27.5999063"></polygon>
                <polygon fill="#FFFFFF" mask="url(#mask-4)" points="13.2000469 46.8 15.5999531 46.8 15.5999531 27.5999063 13.2000469 27.5999063"></polygon>
                <path d="M30.0000938,14.4 L42.0000469,14.4 L42.0000469,7.2 L30.0000938,7.2 L30.0000938,14.4 Z M43.2014063,4.79995288 L43.2,4.79995288 L28.8,4.79995288 C28.1376563,4.79953125 27.6004688,5.33629687 27.6000466,5.99864062 L27.6000466,6.00004687 L27.6000466,15.5999531 C27.599625,16.2624375 28.13625,16.7994844 28.7987344,16.8000471 L28.8,16.8000471 L43.2,16.8000471 C43.8623438,16.8004687 44.3995313,16.2637031 44.3999534,15.6013594 L44.3999534,15.5999531 L44.3999534,6.00004687 C44.400375,5.3375625 43.86375,4.80051562 43.2014063,4.79995288 L43.2014063,4.79995288 Z" fill="#FFFFFF" mask="url(#mask-4)"></path>
            </g>
        </g>
    </g>
</svg>