<?xml version="1.0" encoding="UTF-8"?>
<svg width="74px" height="74px" viewBox="0 0 74 74" version="1.1" xmlns="http://www.w3.org/2000/svg" xmlns:xlink="http://www.w3.org/1999/xlink">
    <!-- Generator: Sketch 55.1 (78136) - https://sketchapp.com -->
    <title>Icon / Insurance</title>
    <desc>Created with Sketch.</desc>
    <defs>
        <polygon points="0 0 72 0 72 71.9999859 0 71.9999859"></polygon>
    </defs>
    <g id="Icon-/-Insurance" stroke="none" stroke-width="1" fill="none" fill-rule="evenodd">
        <g transform="translate(1.000000, 1.000000)">
            <path d="M36,16.8749859 C35.22375,16.8749859 34.59375,17.5049859 34.59375,18.2812359 C34.59375,19.0574859 35.22375,19.6874859 36,19.6874859 C36.77625,19.6874859 37.40625,19.0574859 37.40625,18.2812359 C37.40625,17.5049859 36.77625,16.8749859 36,16.8749859" fill="#FFFFFF"></path>
            <g>
                <mask fill="white">
                    <use xlink:href="#path-1"></use>
                </mask>
                <g></g>
                <path d="M61.9453125,28.1249859 C58.9422656,28.1249859 56.2445156,29.0517047 54.4005,30.5161734 C53.6236875,23.0245172 51.0523594,14.6128922 45.4537969,9.53112656 C56.5955156,12.2041266 65.0302031,19.5924234 68.0048438,29.5444547 C66.3014531,28.6474078 64.1909531,28.1249859 61.9453125,28.1249859 L61.9453125,28.1249859 Z M51.21225,29.8289391 C49.3797656,28.7303766 47.0483438,28.1249859 44.6484375,28.1249859 C41.8057031,28.1249859 39.236625,28.9555172 37.40625,30.2859703 L37.40625,23.9062359 C37.40625,23.1295641 36.7766719,22.4999859 36,22.4999859 C35.2233281,22.4999859 34.59375,23.1295641 34.59375,23.9062359 L34.59375,30.2859703 C32.763375,28.9555172 30.1942969,28.1249859 27.3515625,28.1249859 C24.9516562,28.1249859 22.6202344,28.7303766 20.78775,29.8289391 C20.6866406,29.8894078 20.5889062,29.9519859 20.4922969,30.0151266 C21.9533906,18.0790172 27.4768594,9.53829844 34.59375,8.53578281 L34.59375,12.6562359 C34.59375,13.4329078 35.2233281,14.0624859 36,14.0624859 C36.7766719,14.0624859 37.40625,13.4329078 37.40625,12.6562359 L37.40625,8.53578281 C44.5231406,9.53717344 50.0471719,18.0790172 51.5077031,30.0151266 C51.4110938,29.9519859 51.3133594,29.8894078 51.21225,29.8289391 L51.21225,29.8289391 Z M37.40625,62.1562359 C37.40625,66.0334078 34.2520313,69.1874859 30.375,69.1874859 C26.4979688,69.1874859 23.34375,66.0334078 23.34375,62.1562359 C23.34375,61.3806891 23.9743125,60.7499859 24.75,60.7499859 C25.5256875,60.7499859 26.15625,61.3806891 26.15625,62.1562359 C26.15625,64.4825953 28.0486406,66.3749859 30.375,66.3749859 C32.7013594,66.3749859 34.59375,64.4825953 34.59375,62.1562359 L34.59375,52.3124859 L37.40625,52.3124859 L37.40625,62.1562359 Z M17.6000625,30.5167359 C15.7560469,29.0517047 13.0577344,28.1249859 10.0546875,28.1249859 C7.80904688,28.1249859 5.698125,28.6474078 3.99515625,29.5444547 C6.96979687,19.5924234 15.4039219,12.2041266 26.5462031,9.53112656 C20.955375,14.6062828 18.3789844,23.0065172 17.6000625,30.5167359 L17.6000625,30.5167359 Z M37.40625,5.65029844 L37.40625,1.40623594 C37.40625,0.629564063 36.7766719,-1.40625e-05 36,-1.40625e-05 C35.2233281,-1.40625e-05 34.59375,0.629564063 34.59375,1.40623594 L34.59375,5.65029844 C17.4100781,6.19634531 2.50270312,16.6668609 0.289546875,33.4725328 C0.097734375,34.0197047 0,34.5854391 0,35.1562359 C0,35.9329078 0.629578125,36.5624859 1.40625,36.5624859 C1.42382812,36.5624859 1.44084375,36.5603766 1.45842187,36.5598141 C1.48035937,36.5609391 1.501875,36.5624859 1.52325,36.5624859 C2.24676562,36.5624859 2.8614375,36.0077203 2.92289062,35.2737984 C2.95425,34.8974859 2.99207812,34.5305953 3.03440625,34.1767828 C3.87,32.3201109 6.8439375,30.9374859 10.0546875,30.9374859 C13.9125937,30.9374859 17.296875,32.9090484 17.296875,35.1562359 C17.296875,35.9329078 17.9264531,36.5624859 18.703125,36.5624859 C18.7350469,36.5624859 18.7668281,36.5598141 18.7981875,36.5575641 C18.8135156,36.5570016 18.8289844,36.5570016 18.8443125,36.5554547 C18.8486719,36.5548922 18.8535937,36.5543297 18.8585156,36.5537672 C19.5540469,36.4851422 20.1110625,35.9016891 20.1247031,35.1821109 C20.1263906,35.0694703 20.1297656,34.9557047 20.133,34.8403922 C20.4373125,32.7200484 23.7238594,30.9374859 27.3515625,30.9374859 C31.2094687,30.9374859 34.59375,32.9090484 34.59375,35.1562359 L34.59375,49.4999859 L33.1875,49.4999859 C32.4108281,49.4999859 31.78125,50.1295641 31.78125,50.9062359 L31.78125,62.1562359 C31.78125,62.9319234 31.1506875,63.5624859 30.375,63.5624859 C29.5993125,63.5624859 28.96875,62.9319234 28.96875,62.1562359 C28.96875,59.8300172 27.0763594,57.9374859 24.75,57.9374859 C22.4236406,57.9374859 20.53125,59.8300172 20.53125,62.1562359 C20.53125,67.5840797 24.9471562,71.9999859 30.375,71.9999859 C35.8028438,71.9999859 40.21875,67.5840797 40.21875,62.1562359 L40.21875,50.9062359 C40.21875,50.1295641 39.5891719,49.4999859 38.8125,49.4999859 L37.40625,49.4999859 L37.40625,35.1562359 C37.40625,32.9090484 40.7905313,30.9374859 44.6484375,30.9374859 C48.2788125,30.9374859 51.5676094,32.7227203 51.8664375,34.8349078 C51.8698125,34.9496578 51.8730469,35.0651109 51.8752969,35.1809859 C51.8889375,35.9037984 52.4448281,36.4883766 53.1485156,36.5543297 C53.1968906,36.5598141 53.2469531,36.5624859 53.296875,36.5624859 C54.0735469,36.5624859 54.703125,35.9329078 54.703125,35.1562359 C54.703125,32.9090484 58.0874062,30.9374859 61.9453125,30.9374859 C65.1549375,30.9374859 68.1273281,32.3189859 68.9655938,34.1767828 C69.0079219,34.5305953 69.04575,34.8974859 69.0771094,35.2737984 C69.1385625,36.0077203 69.7532344,36.5624859 70.47675,36.5624859 C70.498125,36.5624859 70.5202031,36.5609391 70.5415781,36.5598141 C70.5591563,36.5609391 70.5761719,36.5624859 70.59375,36.5624859 C71.3704219,36.5624859 72,35.9329078 72,35.1562359 C72,34.5844547 71.9017031,34.0180172 71.7100313,33.4719703 C69.4995469,16.6865484 54.6129844,6.19676719 37.40625,5.65029844 L37.40625,5.65029844 Z" fill="#FFFFFF" mask="url(#mask-2)"></path>
            </g>
        </g>
    </g>
</svg>