<?xml version="1.0" encoding="UTF-8"?>
<svg width="46px" height="54px" viewBox="0 0 46 54" version="1.1" xmlns="http://www.w3.org/2000/svg" xmlns:xlink="http://www.w3.org/1999/xlink">
    <!-- Generator: Sketch 52 (66869) - http://www.bohemiancoding.com/sketch -->
    <title>Group 6</title>
    <desc>Created with Sketch.</desc>
    <defs>
        <polygon points="0 0.3624 45.9793793 0.3624 45.9793793 53.59992 0 53.59992"></polygon>
    </defs>
    <g stroke="none" stroke-width="1" fill="none" fill-rule="evenodd">
        <g id="Icon-/-Money" transform="translate(-6.000000, -3.000000)">
            <g transform="translate(6.000000, 3.000000)">
                <path d="M28.7350103,30.24952 C27.5683552,29.19472 25.8314586,28.38872 23.5707172,27.85232 C21.9337517,27.47392 21.188631,27.05432 20.8464069,26.76272 C20.4665103,26.44712 20.2896483,26.03752 20.2896483,25.46592 C20.2840966,24.76792 20.4720621,24.31272 20.9062862,23.94592 C21.3702517,23.54672 22.1058552,23.35352 23.0413207,23.35352 L23.093269,23.35352 C23.9085793,23.35352 24.1841828,23.50432 24.6184069,23.88872 C25.0355793,24.25792 25.305631,24.88352 25.4257862,25.78832 L25.5764759,26.71912 L30.0261828,26.68952 L29.9865276,25.53232 C29.8846138,23.57992 29.1418724,22.00752 27.7733724,20.85232 C26.9322862,20.16032 26.1851828,19.68352 25.0998207,19.42632 L25.0899069,16.92032 L20.4732517,16.95272 L20.4922862,19.55192 C19.5040793,19.83232 18.6185793,20.29672 17.8556138,20.93552 C16.4315966,22.12432 15.7150276,23.66592 15.7277172,25.51832 C15.7364414,27.13872 16.3193724,28.51352 17.4634241,29.60792 C18.5130966,30.60032 20.073131,31.34512 22.0983207,31.82072 C24.0616483,32.28512 24.9665793,32.77112 25.3782,33.09712 C25.8588207,33.48032 26.0729586,33.95232 26.0729586,34.63072 C26.0729586,35.52152 25.8314586,36.15032 25.3111828,36.61352 C24.7603724,37.10672 23.9347517,37.36032 22.8620793,37.36952 C21.7862345,37.36952 21.3405103,37.13752 20.7897,36.63872 C20.2634759,36.17792 20.0108724,35.52952 19.9962,34.58032 L19.9577345,33.50192 L15.5211138,33.51792 L15.4001655,35.08112 L15.4017517,35.12552 C15.4497345,36.77472 16.1988207,38.24112 17.6410793,39.49312 C18.6344414,40.32232 19.4814759,40.89272 20.6057,41.20072 L20.625131,44.16032 L25.2429759,44.14872 L25.2203724,41.19272 C26.4492862,40.88392 27.5104586,40.33352 28.3757345,39.55832 C29.8814414,38.26032 30.6396483,36.57712 30.6269586,34.55952 C30.6269586,32.86952 29.9734414,31.37912 28.7350103,30.24952" fill="#0A1A92"></path>
                <g transform="translate(0.000000, 0.037600)">
                    <mask fill="white">
                        <use xlink:href="#path-1"></use>
                    </mask>
                    <g ></g>
                    <path d="M23.0140776,47.74472 C13.5464052,47.74472 5.84338793,39.97472 5.84338793,30.42432 C5.84338793,20.87512 13.5464052,13.10552 23.0140776,13.10552 C32.4821466,13.10552 40.1847672,20.87512 40.1847672,30.42432 C40.1847672,39.97472 32.4821466,47.74472 23.0140776,47.74472 M38.3606293,13.19392 L41.0464741,9.62872 L36.4682845,6.12152 L33.5988362,9.88072 C31.2020776,8.61472 28.5094914,7.76272 25.7229224,7.42072 L25.7229224,5.04672 L29.4382155,5.04672 L29.4382155,0.36232 L16.4348879,0.36232 L16.4348879,5.04672 L20.150181,5.04672 L20.150181,7.42072 C8.77311207,8.81232 -0.000198275862,18.59712 -0.000198275862,30.42432 C-0.000198275862,43.20312 10.3260086,53.59992 22.9950431,53.59992 C35.6632845,53.59992 45.9795776,43.20312 45.9795776,30.42432 C45.9795776,23.59152 43.0407328,17.43992 38.3606293,13.19392" fill="#0A1A92" mask="url(#mask-2)"></path>
                </g>
            </g>
        </g>
    </g>
</svg>