<?xml version="1.0" encoding="UTF-8"?>
<svg width="74px" height="74px" viewBox="0 0 74 74" version="1.1" xmlns="http://www.w3.org/2000/svg" xmlns:xlink="http://www.w3.org/1999/xlink">
    <!-- Generator: Sketch 55.1 (78136) - https://sketchapp.com -->
    <title>Icon / Peer</title>
    <desc>Created with Sketch.</desc>
    <defs>
        <polygon points="0.148895161 0.0513822581 39.5362903 0.0513822581 39.5362903 73.7016129 0.148895161 73.7016129"></polygon>
        <polygon points="0 74 74 74 74 0 0 0"></polygon>
    </defs>
    <g id="Icon-/-Peer" stroke="none" stroke-width="1" fill="none" fill-rule="evenodd">
        <g>
            <g transform="translate(34.463710, 0.298387)">
                <mask fill="white">
                    <use xlink:href="#path-1"></use>
                </mask>
                <g></g>
                <path d="M37.1491935,70.1210274 C37.1491935,70.7798661 36.6144839,71.3145758 35.9556452,71.3145758 L12.0846774,71.3145758 C11.4258387,71.3145758 10.891129,70.7798661 10.891129,70.1210274 L10.891129,31.927479 C10.891129,31.2698339 11.4258387,30.7339306 12.0846774,30.7339306 L35.9556452,30.7339306 C36.6144839,30.7339306 37.1491935,31.2698339 37.1491935,31.927479 L37.1491935,70.1210274 Z M35.9556452,28.3468339 L27.5399355,28.3468339 C26.936,15.6176403 16.8170968,5.36625323 4.14280645,4.55687823 L6.96077419,1.73905968 L5.27309677,0.0513822581 L0.498903226,4.82557581 C0.0322258065,5.29225323 0.0322258065,6.04657581 0.498903226,6.51325323 L5.27309677,11.2874468 L6.96077419,9.59976935 L4.31467742,6.95247903 C15.5937097,7.83451129 24.5584516,16.9900718 25.1540323,28.3468339 L12.0846774,28.3468339 C10.1105484,28.3468339 8.50403226,29.95335 8.50403226,31.927479 L8.50403226,70.1210274 C8.50403226,72.0950073 10.1105484,73.7016726 12.0846774,73.7016726 L35.9556452,73.7016726 C37.9297742,73.7016726 39.5362903,72.0950073 39.5362903,70.1210274 L39.5362903,31.927479 C39.5362903,29.95335 37.9297742,28.3468339 35.9556452,28.3468339 L35.9556452,28.3468339 Z" fill="#FFFFFF" mask="url(#mask-2)"></path>
            </g>
            <mask fill="white">
                <use xlink:href="#path-3"></use>
            </mask>
            <g></g>
            <polygon fill="#FFFFFF" mask="url(#mask-4)" points="57.2903226 69.2258065 59.6774194 69.2258065 59.6774194 66.8387097 57.2903226 66.8387097"></polygon>
            <path d="M50.1290323,62.0645161 L66.8387097,62.0645161 L66.8387097,35.8064516 L50.1290323,35.8064516 L50.1290323,62.0645161 Z M68.0322581,33.4193548 L48.9354839,33.4193548 C48.2754516,33.4193548 47.7419355,33.9540645 47.7419355,34.6129032 L47.7419355,63.2580645 C47.7419355,63.9180968 48.2754516,64.4516129 48.9354839,64.4516129 L68.0322581,64.4516129 C68.6922903,64.4516129 69.2258065,63.9180968 69.2258065,63.2580645 L69.2258065,34.6129032 C69.2258065,33.9540645 68.6922903,33.4193548 68.0322581,33.4193548 L68.0322581,33.4193548 Z" fill="#FFFFFF" mask="url(#mask-4)"></path>
            <polygon fill="#FFFFFF" mask="url(#mask-4)" points="14.3225806 40.5806452 16.7096774 40.5806452 16.7096774 38.1935484 14.3225806 38.1935484"></polygon>
            <path d="M7.16129032,33.4193548 L23.8709677,33.4193548 L23.8709677,7.16129032 L7.16129032,7.16129032 L7.16129032,33.4193548 Z M25.0645161,4.77419355 L5.96774194,4.77419355 C5.30770968,4.77419355 4.77419355,5.30890323 4.77419355,5.96774194 L4.77419355,34.6129032 C4.77419355,35.2717419 5.30770968,35.8064516 5.96774194,35.8064516 L25.0645161,35.8064516 C25.7245484,35.8064516 26.2580645,35.2717419 26.2580645,34.6129032 L26.2580645,5.96774194 C26.2580645,5.30890323 25.7245484,4.77419355 25.0645161,4.77419355 L25.0645161,4.77419355 Z" fill="#FFFFFF" mask="url(#mask-4)"></path>
            <path d="M2.38709677,41.7742532 L2.38709677,3.58070484 C2.38709677,2.92305968 2.92180645,2.38715645 3.58064516,2.38715645 L27.4516129,2.38715645 C28.1104516,2.38715645 28.6451613,2.92305968 28.6451613,3.58070484 L28.6451613,41.7742532 C28.6451613,42.4330919 28.1104516,42.9678016 27.4516129,42.9678016 L3.58064516,42.9678016 C2.92180645,42.9678016 2.38709677,42.4330919 2.38709677,41.7742532 L2.38709677,41.7742532 Z M34.2631935,62.4142855 L32.5755161,64.1018137 L35.2228065,66.749104 C23.9437742,65.8670718 14.9790323,56.7115113 14.3834516,45.3548984 L27.4516129,45.3548984 C29.4257419,45.3548984 31.0322581,43.7482331 31.0322581,41.7742532 L31.0322581,3.58070484 C31.0322581,1.60657581 29.4257419,5.96774194e-05 27.4516129,5.96774194e-05 L3.58064516,5.96774194e-05 C1.60651613,5.96774194e-05 0,1.60657581 0,3.58070484 L0,41.7742532 C0,43.7482331 1.60651613,45.3548984 3.58064516,45.3548984 L11.9963548,45.3548984 C12.6002903,58.0828984 22.7191935,68.3353298 35.3934839,69.1447048 L32.5755161,71.9626726 L34.2631935,73.6502008 L39.0373871,68.8760073 C39.5040645,68.4093298 39.5040645,67.6551565 39.0373871,67.188479 L34.2631935,62.4142855 Z" fill="#FFFFFF" mask="url(#mask-4)"></path>
        </g>
    </g>
</svg>