<?xml version="1.0" standalone="no"?>
<!DOCTYPE svg PUBLIC "-//W3C//DTD SVG 20010904//EN"
 "http://www.w3.org/TR/2001/REC-SVG-20010904/DTD/svg10.dtd">
<svg version="1.0" xmlns="http://www.w3.org/2000/svg"
 width="152.000000pt" height="134.000000pt" viewBox="0 0 152.000000 134.000000"
 preserveAspectRatio="xMidYMid meet">
<metadata>
Created by potrace 1.15, written by Peter Selinger 2001-2017
</metadata>
<g transform="translate(0.000000,134.000000) scale(0.100000,-0.100000)"
fill="#0A1A92" stroke="none">
<path d="M158 1239 c-17 -9 -18 -36 -18 -337 0 -242 3 -331 12 -340 8 -8 45
-12 100 -12 l88 0 0 -101 c0 -139 0 -139 114 -139 l94 0 4 -105 c2 -80 7 -108
18 -115 8 -5 94 -10 191 -10 152 0 178 2 190 17 9 10 15 50 17 114 l4 98 96 3
97 3 3 118 3 117 92 0 c59 0 97 4 105 12 9 9 12 97 12 334 0 322 0 323 -22
338 -18 13 -54 16 -183 16 -211 0 -204 4 -207 -138 l-2 -107 -3 104 c-2 58 -9
111 -15 118 -8 10 -54 13 -189 13 -166 0 -180 -1 -191 -19 -12 -19 -13 -19
-35 5 -22 24 -25 24 -190 24 -95 0 -176 -5 -185 -11z m342 -154 l0 -75 -60 0
c-97 0 -100 -6 -100 -205 l0 -165 -80 0 -80 0 0 260 0 260 160 0 160 0 0 -75z
m420 1 l0 -74 -65 -4 c-36 -2 -71 -10 -77 -16 -8 -8 -15 -54 -19 -115 l-6
-102 -1 100 c-1 55 -6 107 -11 114 -6 10 -33 16 -75 19 l-66 4 0 74 0 74 160
0 160 0 0 -74z m420 -186 l0 -260 -85 0 -85 0 0 175 c0 202 3 195 -99 195
l-61 0 0 75 0 75 165 0 165 0 0 -260z m-630 -50 l0 -70 -60 0 c-98 0 -100 -5
-100 -210 l0 -170 -85 0 -85 0 0 260 0 260 165 0 165 0 0 -70z m420 -190 l0
-260 -79 0 -79 0 -4 176 c-4 205 -3 204 -100 204 l-58 0 0 70 0 70 160 0 160
0 0 -260z m-210 -230 l0 -260 -160 0 -160 0 0 260 0 260 160 0 160 0 0 -260z"/>
</g>
</svg>
