<?xml version="1.0" encoding="UTF-8"?>
<svg width="74px" height="74px" viewBox="0 0 74 74" version="1.1" xmlns="http://www.w3.org/2000/svg" xmlns:xlink="http://www.w3.org/1999/xlink">
    <!-- Generator: Sketch 55.1 (78136) - https://sketchapp.com -->
    <title>Icon / Retail</title>
    <desc>Created with Sketch.</desc>
    <defs>
        <polygon points="0 0 71.9999437 0 71.9999437 72 0 72"></polygon>
        <polygon points="0 72 72 72 72 0 0 0"></polygon>
    </defs>
    <g id="Icon-/-Retail" stroke="none" stroke-width="1" fill="none" fill-rule="evenodd">
        <g transform="translate(1.000000, 1.000000)">
            <g >
                <mask fill="white">
                    <use xlink:href="#path-1"></use>
                </mask>
                <g ></g>
                <path d="M69.6000375,57.6 L49.8659906,57.6 L49.3455375,56.7684844 C46.4195531,52.0925625 46.3032563,46.186875 49.0416469,41.4 C49.3006781,40.9470469 49.2371156,40.3782188 48.8842875,39.9936094 L39.0508031,29.2656094 C37.5843656,27.6606562 37.6667719,25.1793281 39.2367094,23.6760469 C40.8072094,22.1723437 43.2896625,22.1969531 44.8293656,23.7306094 L63.9515531,42.8484375 L65.6483344,41.1515156 L61.2083813,36.7115625 L62.4395531,36.2316094 C65.5290844,35.0396719 67.0686469,31.5704531 65.8800844,28.4792344 L61.8182719,17.9325 L65.7057094,21.8280937 C68.1897094,24.3113906 69.590475,27.6768281 69.6000375,31.1895 L69.6000375,57.6 Z M50.4000844,69.5999531 L69.6000375,69.5999531 L69.6000375,59.9999062 L50.4000844,59.9999062 L50.4000844,69.5999531 Z M16.7843812,51.249375 C14.9291156,51.9645938 12.8457562,51.0397031 12.1308187,49.1842969 L10.1063812,43.92 L24.430725,38.4000469 L24.430725,38.3927344 L44.1720844,38.3927344 L45.7317563,40.0931719 L16.7843812,51.249375 Z M17.7732563,38.4000469 L9.23999062,41.6853281 L7.9776,38.4000469 L17.7732563,38.4000469 Z M2.39999062,32.4 L2.39999062,6.00004688 C2.39999062,4.01217187 4.01225625,2.40004688 5.99999063,2.40004688 L53.9999437,2.40004688 C55.9878188,2.40004688 57.5999438,4.01217187 57.5999438,6.00004688 L57.5999438,13.6272656 L57.5895375,13.6272656 L57.5999438,13.6545469 L57.5999438,32.4 C57.5908031,32.6093906 57.5633812,32.8169531 57.5183813,33.0215625 L46.5264281,22.0283437 C44.0556469,19.6146562 40.1166,19.5960938 37.6236,21.9846094 C35.1300375,24.3746719 34.9802719,28.3107656 37.2863813,30.8816719 L41.9724281,36 L5.99999063,36 C4.01225625,36 2.39999062,34.387875 2.39999062,32.4 L2.39999062,32.4 Z M59.9999906,19.8894375 L63.6420375,29.3435156 C64.3557094,31.1993437 63.4308188,33.2817187 61.5754125,33.9959531 L59.4936,34.8000469 C59.8260375,34.0433438 59.9983031,33.2256094 59.9999906,32.4 L59.9999906,19.8894375 Z M59.9999906,12.7127813 L59.9999906,6.00004688 C59.9957719,2.68804688 57.3119438,0.00421875 53.9999437,0 L5.99999063,0 C2.68799062,0.00421875 0.0041625,2.68804688 -5.625e-05,6.00004688 L-5.625e-05,32.4 C0.009225,35.4645 2.33220938,38.0273906 5.38081875,38.3381719 L9.89164687,50.0474531 C11.0831625,53.1392344 14.5553344,54.6795 17.6475375,53.4895312 L45.8159906,42.6383438 C43.8696,47.7225 44.4233813,53.4256875 47.3105531,58.0407187 L47.9998969,59.1432188 L47.9998969,70.7999063 C47.9998969,71.4629531 48.5370844,72 49.1999906,72 L70.7999906,72 C71.4630375,72 71.9999437,71.4629531 71.9999437,70.7999063 L71.9999437,31.1895 C71.9885531,27.0396562 70.3364906,23.0633437 67.4024906,20.1285 L59.9999906,12.7127813 Z" fill="#FFFFFF" mask="url(#mask-2)"></path>
            </g>
            <path d="M7.20002812,13.6800281 L7.20002812,11.9999812 L9.59993438,11.9999812 L9.59993438,9.59993437 L7.20002812,9.59993437 L7.20002812,7.92002812 C7.20002812,7.52248125 7.52248125,7.20002812 7.92002812,7.20002812 L13.6800281,7.20002812 C14.0774344,7.20002812 14.4000281,7.52248125 14.4000281,7.92002812 L14.4000281,9.59993437 L11.9999813,9.59993437 L11.9999813,11.9999812 L14.4000281,11.9999812 L14.4000281,13.6800281 C14.4000281,14.077575 14.0774344,14.4000281 13.6800281,14.4000281 L7.92002812,14.4000281 C7.52248125,14.4000281 7.20002812,14.077575 7.20002812,13.6800281 L7.20002812,13.6800281 Z M13.6800281,16.800075 C15.4031063,16.800075 16.800075,15.4032469 16.800075,13.6800281 L16.800075,7.92002813 C16.800075,6.19680937 15.4031063,4.79998125 13.6800281,4.79998125 L7.92002812,4.79998125 C6.19680938,4.79998125 4.79998125,6.19680937 4.79998125,7.92002813 L4.79998125,13.6800281 C4.79998125,15.4032469 6.19680938,16.800075 7.92002812,16.800075 L13.6800281,16.800075 Z" fill="#FFFFFF"></path>
            <mask fill="white">
                <use xlink:href="#path-3"></use>
            </mask>
            <g></g>
            <polygon fill="#FFFFFF" mask="url(#mask-4)" points="6.00004687 22.7999531 10.8 22.7999531 10.8 20.4000469 6.00004687 20.4000469"></polygon>
            <polygon fill="#FFFFFF" mask="url(#mask-4)" points="6.00004687 29.9999531 10.8 29.9999531 10.8 27.5999063 6.00004687 27.5999063"></polygon>
            <polygon fill="#FFFFFF" mask="url(#mask-4)" points="27.6000469 29.9999531 32.4 29.9999531 32.4 27.5999063 27.6000469 27.5999063"></polygon>
            <polygon fill="#FFFFFF" mask="url(#mask-4)" points="13.2000469 22.7999531 18 22.7999531 18 20.4000469 13.2000469 20.4000469"></polygon>
            <polygon fill="#FFFFFF" mask="url(#mask-4)" points="20.4000469 22.7999531 25.2 22.7999531 25.2 20.4000469 20.4000469 20.4000469"></polygon>
            <polygon fill="#FFFFFF" mask="url(#mask-4)" points="27.6000469 22.7999531 32.4 22.7999531 32.4 20.4000469 27.6000469 20.4000469"></polygon>
            <polygon fill="#FFFFFF" mask="url(#mask-4)" points="50.4 9.60004687 52.7999062 9.60004687 52.7999062 6.00004687 50.4 6.00004687"></polygon>
            <polygon fill="#FFFFFF" mask="url(#mask-4)" points="45.6000469 9.60004687 47.9999531 9.60004687 47.9999531 6.00004687 45.6000469 6.00004687"></polygon>
            <polygon fill="#FFFFFF" mask="url(#mask-4)" points="40.8000938 9.60004687 43.2 9.60004687 43.2 6.00004687 40.8000938 6.00004687"></polygon>
            <polygon fill="#FFFFFF" mask="url(#mask-4)" points="36 9.60004687 38.3999062 9.60004687 38.3999062 6.00004687 36 6.00004687"></polygon>
            <polygon fill="#FFFFFF" mask="url(#mask-4)" points="52.8000469 64.8 55.1999531 64.8 55.1999531 62.4000937 52.8000469 62.4000937"></polygon>
        </g>
    </g>
</svg>