<?xml version="1.0" encoding="UTF-8"?>
<svg width="58px" height="58px" viewBox="0 0 58 58" version="1.1" xmlns="http://www.w3.org/2000/svg" xmlns:xlink="http://www.w3.org/1999/xlink">
    <!-- Generator: Sketch 54.1 (76490) - https://sketchapp.com -->
    <title>Icon / User</title>
    <desc>Created with Sketch.</desc>
    <defs>
        <polygon points="0.0813061728 0.0549349693 32.507158 0.0549349693 32.507158 21.6932515 0.0813061728 21.6932515"></polygon>
        <polygon points="0 0.0680147239 51.7375605 0.0680147239 51.7375605 36.4227141 0 36.4227141"></polygon>
    </defs>
    <g id="Icon-/-User" stroke="none" stroke-width="1" fill="none" fill-rule="evenodd">
        <g transform="translate(4.000000, 4.000000)">
            <path d="M20.0018642,23.4577423 C20.1074691,24.1008834 20.3665062,24.509865 20.6133457,24.7673129 C21.1940123,28.6373252 24.4565309,32.2425521 27.4446049,32.2425521 C30.9228272,32.2425521 34.0916173,28.3451043 34.7072716,24.7673129 C34.9499383,24.509865 35.2089753,24.1123681 35.3187531,23.4577423 C35.5187284,22.7287853 35.7774444,21.4661104 35.3187531,20.869865 C35.3030247,20.8424294 35.2715679,20.8114847 35.2558395,20.7958528 C35.6715185,19.256589 36.205,16.1072393 34.307,13.9599264 C34.1384815,13.745546 33.0679877,12.4828712 30.7857654,11.8126135 L29.6953704,11.4342577 C27.9032963,10.884908 26.7702099,10.764 26.7227037,10.764 C26.6485556,10.7483681 26.5702346,10.764 26.480037,10.7796319 C26.4171235,10.7911166 26.2052716,10.8536442 26.0524815,10.8380123 C25.6210741,10.764 24.9778148,10.989865 24.8564815,11.0367607 C24.7190988,11.0992883 21.2405556,12.4672393 20.1822593,15.6941104 C20.0917407,15.9550675 19.6645062,17.3233374 20.2291235,20.6749448 C20.1392469,20.7180123 20.0606049,20.7958528 20.0018642,20.869865 C19.5544074,21.4661104 19.8015679,22.7287853 20.0018642,23.4577423" fill="#0A1A92"></path>
            <g transform="translate(11.234568, 30.238798)">
                <mask fill="white">
                    <use xlink:href="#path-1"></use>
                </mask>
                <g ></g>
                <path d="M27.3469605,3.23905767 C27.3469605,3.23905767 27.2095778,3.19248098 26.9938741,3.12995337 C25.4922938,2.43226012 24.0683926,1.9881865 24.0683926,1.9881865 C23.7628123,1.88291043 23.4999235,1.77763436 23.2569358,1.66853006 C22.2448617,1.16958528 21.4019481,0.604284663 21.2177012,0.0705668712 C21.2177012,0.0705668712 21.8176272,5.7216589 16.8532321,5.84256687 L16.1631086,5.81130307 C11.6612568,5.41380613 11.371084,0.0549349693 11.371084,0.0549349693 C10.8966642,1.53199018 5.24182469,3.23905767 5.24182469,3.23905767 C3.55567654,3.87805153 2.85367654,4.83702086 2.85367654,4.83702086 C0.371479012,8.50445644 0.0813061728,16.6499534 0.0813061728,16.6499534 C0.112441975,18.5245055 0.924540741,18.7076221 0.924540741,18.7076221 C6.6378,21.2489227 15.5981704,21.6891681 15.5981704,21.6891681 C16.0886395,21.7048 16.5316025,21.6735362 16.9748864,21.6425914 L16.9902938,21.6891681 C16.9902938,21.6891681 25.9506642,21.2489227 31.6642444,18.7076221 C31.6642444,18.7076221 32.4760222,18.5245055 32.507158,16.6652663 C32.507158,16.6652663 32.2173062,8.50445644 29.7347877,4.85265276 C29.7347877,4.83702086 29.0331086,3.87805153 27.3469605,3.23905767" fill="#0A1A92" mask="url(#mask-2)"></path>
            </g>
            <path d="M32.2561136,30.5548172 C32.3305827,30.4769767 32.3934963,30.4026454 32.452237,30.309173 C32.452237,30.2664245 32.4365086,30.2354798 32.4365086,30.2354798 C32.3934963,30.3560687 32.3305827,30.4457129 32.2561136,30.5548172" fill="#0A1A92"></path>
            <path d="M22.6330642,30.2937325 L22.6211877,30.2353521 L22.6054593,30.2937325 C22.6054593,30.2937325 22.6211877,30.2781006 22.6211877,30.266616 C22.6211877,30.266616 22.6211877,30.2781006 22.6330642,30.2937325" fill="#0A1A92"></path>
            <g transform="translate(0.000000, 0.251067)">
                <mask fill="white">
                    <use xlink:href="#path-3"></use>
                </mask>
                <g ></g>
                <path d="M27.2917827,0.0680147239 C13.8099802,0.0680147239 2.84568395,10.9688736 2.84568395,24.3641374 C2.84568395,27.0142233 3.31978272,29.6333644 4.15948642,32.1315975 L1.9552642,31.6441374 C1.08089383,31.445708 0.226103704,31.9912294 0.0415358025,32.8449227 C-0.158439506,33.7139288 0.378893827,34.5673031 1.24941235,34.7622233 L8.5746716,36.3914503 C8.68059753,36.4070822 8.80193086,36.4227141 8.92358519,36.4227141 C9.64516543,36.4227141 10.3198815,35.9199411 10.4884,35.1753521 L12.049363,28.2615853 C12.2493383,27.3964074 11.6959556,26.5427141 10.8411654,26.3439656 C9.96679506,26.1608491 9.10815309,26.6945669 8.92358519,27.563892 L8.3901037,29.9061252 C7.85309136,28.1250454 7.56291852,26.2699534 7.56291852,24.3641374 C7.56291852,13.541119 16.417684,4.74099632 27.2917827,4.74099632 C38.1812889,4.74099632 47.0360543,13.541119 47.0360543,24.3641374 C47.0360543,27.6222724 46.2085481,30.8494626 44.6636346,33.6982969 L48.7966716,35.9199411 C50.7142519,32.4043583 51.7375605,28.4016344 51.7375605,24.3641374 C51.7375605,10.9688736 40.7694123,0.0680147239 27.2917827,0.0680147239" fill="#0A1A92" mask="url(#mask-4)"></path>
            </g>
        </g>
    </g>
</svg>